<svg xmlns="http://www.w3.org/2000/svg" version="1.1" xmlns:xlink="http://www.w3.org/1999/xlink" xmlns:svgjs="http://svgjs.dev/svgjs" width="1440" height="560" preserveAspectRatio="none" viewBox="0 0 1440 560"><g mask="url(&quot;#SvgjsMask1016&quot;)" fill="none"><rect width="1440" height="560" x="0" y="0" fill="rgba(225, 225, 225, 1)"></rect><path d="M160.31446198823184 356.8306042530173L87.21786437875227 473.809613362887 204.19687348862192 546.9062109723666 277.2934710981015 429.9272018624969z" fill="rgba(179, 19, 18, 1)" class="triangle-float1"></path><path d="M1171.515181067175 213.55437082150968L1106.545845445355 198.55501782787053 1116.5314837658063 303.5086977574199z" fill="rgba(179, 19, 18, 1)" class="triangle-float3"></path><path d="M97.57985142034559 108.98296665433566L93.97272608480733 212.2775213860312 250.71812085011976 166.0409320234908z" fill="rgba(179, 19, 18, 1)" class="triangle-float2"></path><path d="M407.39197641354764 561.6667550584324L532.2001947092672 521.114106682417 491.64754633325174 396.30588838669735 366.83932803753214 436.8585367627128z" fill="rgba(179, 19, 18, 1)" class="triangle-float1"></path><path d="M545.504,451.198C574.038,448.783,593.23,424.736,606.75,399.493C619.334,375.999,624.869,349.025,613.012,325.156C599.758,298.475,575.296,276.073,545.504,276.203C515.88,276.332,494.391,300.425,479.009,325.742C462.806,352.41,448.601,384.072,463.214,411.643C478.49,440.465,513,453.949,545.504,451.198" fill="rgba(179, 19, 18, 1)" class="triangle-float3"></path><path d="M330.50534192087264 353.4539217145611L284.0237613099559 448.7552850038015 379.3251245991963 495.2368656147182 425.806705210113 399.93550232547784z" fill="rgba(179, 19, 18, 1)" class="triangle-float1"></path><path d="M425.421,689.08C459.843,686.164,491.629,670.441,509.107,640.644C526.801,610.479,527.948,573.501,511.236,542.782C493.744,510.629,462.009,487.879,425.421,486.814C386.988,485.695,351.669,505.429,330.494,537.522C306.683,573.608,290.009,620.618,312.958,657.258C335.123,692.647,383.813,692.604,425.421,689.08" fill="rgba(179, 19, 18, 1)" class="triangle-float3"></path><path d="M1387.1263384912627 106.41622650509696L1323.8603584226705 167.51147328450458 1384.955605202078 230.77745335309677 1448.2215852706704 169.68220657368917z" fill="rgba(179, 19, 18, 1)" class="triangle-float1"></path><path d="M779.314,661.42C829.832,660.285,869.818,622.6,893.505,577.964C915.596,536.334,916.846,487.049,893.602,446.052C870.033,404.483,827.097,377.122,779.314,376.563C730.564,375.993,685.29,401.462,660.297,443.321C634.646,486.282,631.905,539.383,655.873,583.305C680.873,629.118,727.137,662.593,779.314,661.42" fill="rgba(179, 19, 18, 1)" class="triangle-float3"></path><path d="M55.95356150235371 380.3474841580067L8.403552356822573 439.06685524503877 120.25761356013626 481.03218341981943z" fill="rgba(179, 19, 18, 1)" class="triangle-float2"></path></g><defs><mask id="SvgjsMask1016"><rect width="1440" height="560" fill="#ffffff"></rect></mask><style>
                @keyframes float1 {
                    0%{transform: translate(0, 0)}
                    50%{transform: translate(-10px, 0)}
                    100%{transform: translate(0, 0)}
                }

                .triangle-float1 {
                    animation: float1 5s infinite;
                }

                @keyframes float2 {
                    0%{transform: translate(0, 0)}
                    50%{transform: translate(-5px, -5px)}
                    100%{transform: translate(0, 0)}
                }

                .triangle-float2 {
                    animation: float2 4s infinite;
                }

                @keyframes float3 {
                    0%{transform: translate(0, 0)}
                    50%{transform: translate(0, -10px)}
                    100%{transform: translate(0, 0)}
                }

                .triangle-float3 {
                    animation: float3 6s infinite;
                }
            </style></defs></svg>