<svg xmlns="http://www.w3.org/2000/svg" version="1.1" xmlns:xlink="http://www.w3.org/1999/xlink" xmlns:svgjs="http://svgjs.dev/svgjs" width="1432" height="560" preserveAspectRatio="none" viewBox="0 0 1432 560"><g mask="url(&quot;#SvgjsMask1025&quot;)" fill="none"><rect width="1432" height="560" x="0" y="0" fill="rgba(225, 225, 225, 1)"></rect><path d="M716 666.61C828.78 666.34 947.74 670.63 1034.21 598.21 1126.92 520.55 1178.54 400.94 1177.48 280 1176.43 160.01 1114.51 51.15 1028.63-32.63 943.9-115.28 834.22-175.87 716-170.13 602.17-164.58 507.04-89.72 432.37-3.63 363.56 75.69 331.8 175.18 325.54 280 318.78 393.25 315.68 519.87 396.3 599.7 476.74 679.33 602.81 666.89 716 666.61" fill="rgba(255, 222, 185, 1)"></path><path d="M716 530.16C788.97 529.99 865.95 532.76 921.9 485.9 981.89 435.65 1015.29 358.25 1014.61 280 1013.92 202.36 973.86 131.92 918.29 77.71 863.47 24.23 792.49-14.98 716-11.26 642.34-7.67 580.79 40.77 532.48 96.48 487.95 147.8 467.4 212.17 463.35 280 458.97 353.28 456.97 435.21 509.13 486.87 561.19 538.39 642.76 530.34 716 530.16" fill="rgba(234, 144, 108, 1)"></path><path d="M716 393.71C749.17 393.63 784.16 394.89 809.59 373.59 836.86 350.75 852.04 315.57 851.73 280 851.42 244.71 833.21 212.69 807.95 188.05 783.03 163.74 750.77 145.92 716 147.61 682.52 149.24 654.54 171.26 632.58 196.58 612.34 219.91 603 249.17 601.16 280 599.17 313.31 598.26 350.55 621.97 374.03 645.63 397.45 682.71 393.79 716 393.71" fill="rgba(179, 19, 18, 1)"></path></g><defs><mask id="SvgjsMask1025"><rect width="1432" height="560" fill="#ffffff"></rect></mask></defs></svg>