<svg xmlns="http://www.w3.org/2000/svg" version="1.1" xmlns:xlink="http://www.w3.org/1999/xlink" xmlns:svgjs="http://svgjs.dev/svgjs" width="1440" height="560" preserveAspectRatio="none" viewBox="0 0 1440 560"><g mask="url(&quot;#SvgjsMask1007&quot;)" fill="none"><rect width="1440" height="560" x="0" y="0" fill="rgba(255, 220, 169, 1)"></rect><path d="M1488 560L0 560 L0 299.48Q53.1 232.58, 120 285.67Q206.63 252.31, 240 338.94Q264.77 291.71, 312 316.47Q357.04 241.51, 432 286.55Q488.19 270.74, 504 326.92Q589.04 291.96, 624 377Q675.68 308.69, 744 360.37Q776.15 272.52, 864 304.68Q929.36 250.04, 984 315.4Q1030.75 242.15, 1104 288.91Q1165.46 278.38, 1176 339.84Q1220.31 264.15, 1296 308.46Q1361.39 253.85, 1416 319.24Q1459.71 290.95, 1488 334.66z" fill="rgba(205, 16, 77, 1)"></path><path d="M1488 560L0 560 L0 422.6Q43.49 394.1, 72 437.59Q89.17 334.76, 192 351.93Q264.38 304.31, 312 376.7Q401.77 346.47, 432 436.24Q468.35 352.59, 552 388.94Q624.11 341.05, 672 413.16Q744.08 365.24, 792 437.32Q798.19 371.5, 864 377.69Q913.68 307.37, 984 357.05Q1035.68 336.73, 1056 388.41Q1139.86 352.27, 1176 436.13Q1226.58 366.71, 1296 417.29Q1346.71 396, 1368 446.71Q1403.54 362.25, 1488 397.78z" fill="rgba(225, 77, 42, 1)"></path><path d="M1512 560L0 560 L0 502.66Q19.01 401.68, 120 420.69Q164.27 392.96, 192 437.22Q240.23 413.45, 264 461.68Q344.74 422.42, 384 503.16Q413.43 412.59, 504 442.02Q581.53 399.55, 624 477.08Q634.03 415.11, 696 425.13Q739.05 396.18, 768 439.22Q855.38 406.6, 888 493.97Q940.78 426.75, 1008 479.54Q1055.8 407.34, 1128 455.14Q1189.5 444.64, 1200 506.14Q1222.9 409.04, 1320 431.95Q1362.05 402, 1392 444.05Q1470.84 402.88, 1512 481.72z" fill="rgba(253, 132, 31, 1)"></path><path d="M1488 560L0 560 L0 494.47Q98.96 473.43, 120 572.39Q131.21 511.6, 192 522.8Q258.04 468.84, 312 534.88Q326.57 477.45, 384 492.03Q455.65 443.68, 504 515.32Q569.04 508.36, 576 573.4Q597.94 523.34, 648 545.27Q658.26 483.53, 720 493.8Q790.62 444.42, 840 515.04Q870.74 473.78, 912 504.52Q977.95 498.47, 984 564.42Q1030.85 491.26, 1104 538.11Q1143.18 457.29, 1224 496.47Q1298.27 450.75, 1344 525.02Q1406.51 515.53, 1416 578.05Q1439.62 529.67, 1488 553.29z" fill="white"></path></g><defs><mask id="SvgjsMask1007"><rect width="1440" height="560" fill="#ffffff"></rect></mask></defs></svg>