<svg xmlns="http://www.w3.org/2000/svg" version="1.1" xmlns:xlink="http://www.w3.org/1999/xlink" xmlns:svgjs="http://svgjs.dev/svgjs" width="1460" height="563" preserveAspectRatio="none" viewBox="0 0 1460 563"><g mask="url(&quot;#SvgjsMask1013&quot;)" fill="none"><rect width="1460" height="563" x="0" y="0" fill="rgba(225, 225, 225, 1)"></rect><path d="M178.29 649.85C370.54 640.43 497.08 315.11 866.92 305.51 1236.76 295.91 1376.49 110.39 1555.55 108.46" stroke="rgba(179, 19, 18, 1)" stroke-width="2"></path><path d="M800.72 601.44C926.57 572.15 980.7 237.09 1166.77 236.54 1352.85 235.99 1425.05 458 1532.83 467.37" stroke="rgba(179, 19, 18, 1)" stroke-width="2"></path><path d="M435.03 567.73C586.7 516.83 612.1 85.35 840.66 72.77 1069.23 60.19 1043.48 143.15 1246.3 143.15 1449.11 143.15 1549.01 73.03 1651.93 72.77" stroke="rgba(179, 19, 18, 1)" stroke-width="2"></path><path d="M472.32 658.46C624.69 645.79 709.6 345.83 992.33 336.57 1275.06 327.31 1378.7 213.56 1512.34 212.71" stroke="rgba(179, 19, 18, 1)" stroke-width="2"></path><path d="M462.77 600.51C615.68 543.92 633.7 99.29 861.68 84.53 1089.65 69.77 1061.13 154.91 1260.58 154.91 1460.04 154.91 1558.22 84.8 1659.49 84.53" stroke="rgba(179, 19, 18, 1)" stroke-width="2"></path></g><defs><mask id="SvgjsMask1013"><rect width="1460" height="563" fill="#ffffff"></rect></mask></defs></svg>