<svg xmlns="http://www.w3.org/2000/svg" version="1.1" xmlns:xlink="http://www.w3.org/1999/xlink" xmlns:svgjs="http://svgjs.dev/svgjs" width="1440" height="554" preserveAspectRatio="none" viewBox="0 0 1440 554"><g mask="url(&quot;#SvgjsMask1036&quot;)" fill="none"><rect width="1440" height="554" x="0" y="0" fill="rgba(225, 225, 225, 1)"></rect><path d="M-55.46 389.68L-55.46 389.68" stroke="rgba(234, 144, 108, 1)" stroke-width="1.5"></path><path d="M-55.46 389.68L104.34 376.81" stroke="rgba(234, 144, 108, 1)" stroke-width="1.5"></path><path d="M-55.46 389.68L107.74 528.91" stroke="rgba(234, 144, 108, 1)" stroke-width="1.5"></path><path d="M-55.46 389.68L202.15 527.06" stroke="rgba(234, 144, 108, 1)" stroke-width="1.5"></path><path d="M-55.46 389.68L-40.18 685.2" stroke="rgba(234, 144, 108, 1)" stroke-width="1.5"></path><path d="M-55.46 389.68L244.69 344.01" stroke="rgba(234, 144, 108, 1)" stroke-width="1.5"></path><path d="M-40.18 685.2L-40.18 685.2" stroke="rgba(234, 144, 108, 1)" stroke-width="1.5"></path><path d="M-40.18 685.2L110.9 684.61" stroke="rgba(234, 144, 108, 1)" stroke-width="1.5"></path><path d="M-40.18 685.2L107.74 528.91" stroke="rgba(234, 144, 108, 1)" stroke-width="1.5"></path><path d="M-40.18 685.2L189.11 675.64" stroke="rgba(234, 144, 108, 1)" stroke-width="1.5"></path><path d="M-40.18 685.2L202.15 527.06" stroke="rgba(234, 144, 108, 1)" stroke-width="1.5"></path><path d="M104.34 376.81L104.34 376.81" stroke="rgba(234, 144, 108, 1)" stroke-width="1.5"></path><path d="M104.34 376.81L244.69 344.01" stroke="rgba(234, 144, 108, 1)" stroke-width="1.5"></path><path d="M104.34 376.81L107.74 528.91" stroke="rgba(234, 144, 108, 1)" stroke-width="1.5"></path><path d="M107.74 528.91L107.74 528.91" stroke="rgba(234, 144, 108, 1)" stroke-width="1.5"></path><path d="M107.74 528.91L202.15 527.06" stroke="rgba(234, 144, 108, 1)" stroke-width="1.5"></path><path d="M110.9 684.61L110.9 684.61" stroke="rgba(234, 144, 108, 1)" stroke-width="1.5"></path><path d="M110.9 684.61L189.11 675.64" stroke="rgba(234, 144, 108, 1)" stroke-width="1.5"></path><path d="M244.69 344.01L244.69 344.01" stroke="rgba(234, 144, 108, 1)" stroke-width="1.5"></path><path d="M244.69 344.01L379.38 345.37" stroke="rgba(234, 144, 108, 1)" stroke-width="1.5"></path><path d="M202.15 527.06L202.15 527.06" stroke="rgba(234, 144, 108, 1)" stroke-width="1.5"></path><path d="M202.15 527.06L189.11 675.64" stroke="rgba(234, 144, 108, 1)" stroke-width="1.5"></path><path d="M189.11 675.64L189.11 675.64" stroke="rgba(234, 144, 108, 1)" stroke-width="1.5"></path><path d="M379.38 345.37L379.38 345.37" stroke="rgba(234, 144, 108, 1)" stroke-width="1.5"></path><path d="M379.38 345.37L495.21 387.68" stroke="rgba(234, 144, 108, 1)" stroke-width="1.5"></path><path d="M379.38 345.37L388.39 536.41" stroke="rgba(234, 144, 108, 1)" stroke-width="1.5"></path><path d="M379.38 345.37L549.85 256.68" stroke="rgba(234, 144, 108, 1)" stroke-width="1.5"></path><path d="M379.38 345.37L525.67 539.67" stroke="rgba(234, 144, 108, 1)" stroke-width="1.5"></path><path d="M388.39 536.41L388.39 536.41" stroke="rgba(234, 144, 108, 1)" stroke-width="1.5"></path><path d="M388.39 536.41L378.74 639.58" stroke="rgba(234, 144, 108, 1)" stroke-width="1.5"></path><path d="M388.39 536.41L525.67 539.67" stroke="rgba(234, 144, 108, 1)" stroke-width="1.5"></path><path d="M388.39 536.41L495.21 387.68" stroke="rgba(234, 144, 108, 1)" stroke-width="1.5"></path><path d="M388.39 536.41L202.15 527.06" stroke="rgba(234, 144, 108, 1)" stroke-width="1.5"></path><path d="M378.74 639.58L378.74 639.58" stroke="rgba(234, 144, 108, 1)" stroke-width="1.5"></path><path d="M378.74 639.58L525.67 539.67" stroke="rgba(234, 144, 108, 1)" stroke-width="1.5"></path><path d="M378.74 639.58L559.1 702.8" stroke="rgba(234, 144, 108, 1)" stroke-width="1.5"></path><path d="M549.85 256.68L549.85 256.68" stroke="rgba(234, 144, 108, 1)" stroke-width="1.5"></path><path d="M549.85 256.68L495.21 387.68" stroke="rgba(234, 144, 108, 1)" stroke-width="1.5"></path><path d="M549.85 256.68L658.85 356.04" stroke="rgba(234, 144, 108, 1)" stroke-width="1.5"></path><path d="M549.85 256.68L789.86 227.44" stroke="rgba(234, 144, 108, 1)" stroke-width="1.5"></path><path d="M549.85 256.68L654.44 508.71" stroke="rgba(234, 144, 108, 1)" stroke-width="1.5"></path><path d="M495.21 387.68L495.21 387.68" stroke="rgba(234, 144, 108, 1)" stroke-width="1.5"></path><path d="M495.21 387.68L525.67 539.67" stroke="rgba(234, 144, 108, 1)" stroke-width="1.5"></path><path d="M525.67 539.67L525.67 539.67" stroke="rgba(234, 144, 108, 1)" stroke-width="1.5"></path><path d="M525.67 539.67L654.44 508.71" stroke="rgba(234, 144, 108, 1)" stroke-width="1.5"></path><path d="M559.1 702.8L559.1 702.8" stroke="rgba(234, 144, 108, 1)" stroke-width="1.5"></path><path d="M559.1 702.8L648.93 676.31" stroke="rgba(234, 144, 108, 1)" stroke-width="1.5"></path><path d="M559.1 702.8L525.67 539.67" stroke="rgba(234, 144, 108, 1)" stroke-width="1.5"></path><path d="M559.1 702.8L654.44 508.71" stroke="rgba(234, 144, 108, 1)" stroke-width="1.5"></path><path d="M559.1 702.8L388.39 536.41" stroke="rgba(234, 144, 108, 1)" stroke-width="1.5"></path><path d="M559.1 702.8L856.25 664.83" stroke="rgba(234, 144, 108, 1)" stroke-width="1.5"></path><path d="M658.85 356.04L658.85 356.04" stroke="rgba(234, 144, 108, 1)" stroke-width="1.5"></path><path d="M658.85 356.04L654.44 508.71" stroke="rgba(234, 144, 108, 1)" stroke-width="1.5"></path><path d="M658.85 356.04L495.21 387.68" stroke="rgba(234, 144, 108, 1)" stroke-width="1.5"></path><path d="M654.44 508.71L654.44 508.71" stroke="rgba(234, 144, 108, 1)" stroke-width="1.5"></path><path d="M654.44 508.71L801.3 524.4" stroke="rgba(234, 144, 108, 1)" stroke-width="1.5"></path><path d="M648.93 676.31L648.93 676.31" stroke="rgba(234, 144, 108, 1)" stroke-width="1.5"></path><path d="M648.93 676.31L654.44 508.71" stroke="rgba(234, 144, 108, 1)" stroke-width="1.5"></path><path d="M648.93 676.31L525.67 539.67" stroke="rgba(234, 144, 108, 1)" stroke-width="1.5"></path><path d="M789.86 227.44L789.86 227.44" stroke="rgba(234, 144, 108, 1)" stroke-width="1.5"></path><path d="M789.86 227.44L829.76 356.01" stroke="rgba(234, 144, 108, 1)" stroke-width="1.5"></path><path d="M789.86 227.44L969.4 199.53" stroke="rgba(234, 144, 108, 1)" stroke-width="1.5"></path><path d="M829.76 356.01L829.76 356.01" stroke="rgba(234, 144, 108, 1)" stroke-width="1.5"></path><path d="M829.76 356.01L988.08 378.63" stroke="rgba(234, 144, 108, 1)" stroke-width="1.5"></path><path d="M829.76 356.01L801.3 524.4" stroke="rgba(234, 144, 108, 1)" stroke-width="1.5"></path><path d="M829.76 356.01L658.85 356.04" stroke="rgba(234, 144, 108, 1)" stroke-width="1.5"></path><path d="M829.76 356.01L951.42 505.59" stroke="rgba(234, 144, 108, 1)" stroke-width="1.5"></path><path d="M801.3 524.4L801.3 524.4" stroke="rgba(234, 144, 108, 1)" stroke-width="1.5"></path><path d="M801.3 524.4L856.25 664.83" stroke="rgba(234, 144, 108, 1)" stroke-width="1.5"></path><path d="M801.3 524.4L951.42 505.59" stroke="rgba(234, 144, 108, 1)" stroke-width="1.5"></path><path d="M856.25 664.83L856.25 664.83" stroke="rgba(234, 144, 108, 1)" stroke-width="1.5"></path><path d="M856.25 664.83L960.81 702.07" stroke="rgba(234, 144, 108, 1)" stroke-width="1.5"></path><path d="M856.25 664.83L951.42 505.59" stroke="rgba(234, 144, 108, 1)" stroke-width="1.5"></path><path d="M856.25 664.83L648.93 676.31" stroke="rgba(234, 144, 108, 1)" stroke-width="1.5"></path><path d="M856.25 664.83L654.44 508.71" stroke="rgba(234, 144, 108, 1)" stroke-width="1.5"></path><path d="M856.25 664.83L1113.4 685.64" stroke="rgba(234, 144, 108, 1)" stroke-width="1.5"></path><path d="M984.49 -76.14L984.49 -76.14" stroke="rgba(234, 144, 108, 1)" stroke-width="1.5"></path><path d="M984.49 -76.14L1150.64 -103.6" stroke="rgba(234, 144, 108, 1)" stroke-width="1.5"></path><path d="M953.82 89.6L953.82 89.6" stroke="rgba(234, 144, 108, 1)" stroke-width="1.5"></path><path d="M953.82 89.6L969.4 199.53" stroke="rgba(234, 144, 108, 1)" stroke-width="1.5"></path><path d="M953.82 89.6L984.49 -76.14" stroke="rgba(234, 144, 108, 1)" stroke-width="1.5"></path><path d="M969.4 199.53L969.4 199.53" stroke="rgba(234, 144, 108, 1)" stroke-width="1.5"></path><path d="M969.4 199.53L1114.76 199.29" stroke="rgba(234, 144, 108, 1)" stroke-width="1.5"></path><path d="M969.4 199.53L988.08 378.63" stroke="rgba(234, 144, 108, 1)" stroke-width="1.5"></path><path d="M969.4 199.53L829.76 356.01" stroke="rgba(234, 144, 108, 1)" stroke-width="1.5"></path><path d="M988.08 378.63L988.08 378.63" stroke="rgba(234, 144, 108, 1)" stroke-width="1.5"></path><path d="M988.08 378.63L951.42 505.59" stroke="rgba(234, 144, 108, 1)" stroke-width="1.5"></path><path d="M988.08 378.63L1091.73 500.13" stroke="rgba(234, 144, 108, 1)" stroke-width="1.5"></path><path d="M988.08 378.63L1156.46 388.69" stroke="rgba(234, 144, 108, 1)" stroke-width="1.5"></path><path d="M951.42 505.59L951.42 505.59" stroke="rgba(234, 144, 108, 1)" stroke-width="1.5"></path><path d="M951.42 505.59L1091.73 500.13" stroke="rgba(234, 144, 108, 1)" stroke-width="1.5"></path><path d="M951.42 505.59L960.81 702.07" stroke="rgba(234, 144, 108, 1)" stroke-width="1.5"></path><path d="M960.81 702.07L960.81 702.07" stroke="rgba(234, 144, 108, 1)" stroke-width="1.5"></path><path d="M960.81 702.07L1113.4 685.64" stroke="rgba(234, 144, 108, 1)" stroke-width="1.5"></path><path d="M1150.64 -103.6L1150.64 -103.6" stroke="rgba(234, 144, 108, 1)" stroke-width="1.5"></path><path d="M1150.64 -103.6L1277.86 -104.45" stroke="rgba(234, 144, 108, 1)" stroke-width="1.5"></path><path d="M1150.64 -103.6L1302.35 100.25" stroke="rgba(234, 144, 108, 1)" stroke-width="1.5"></path><path d="M1150.64 -103.6L1406.72 -67.78" stroke="rgba(234, 144, 108, 1)" stroke-width="1.5"></path><path d="M1150.64 -103.6L953.82 89.6" stroke="rgba(234, 144, 108, 1)" stroke-width="1.5"></path><path d="M1114.76 199.29L1114.76 199.29" stroke="rgba(234, 144, 108, 1)" stroke-width="1.5"></path><path d="M1114.76 199.29L1263.93 255.41" stroke="rgba(234, 144, 108, 1)" stroke-width="1.5"></path><path d="M1114.76 199.29L1156.46 388.69" stroke="rgba(234, 144, 108, 1)" stroke-width="1.5"></path><path d="M1114.76 199.29L953.82 89.6" stroke="rgba(234, 144, 108, 1)" stroke-width="1.5"></path><path d="M1114.76 199.29L1302.35 100.25" stroke="rgba(234, 144, 108, 1)" stroke-width="1.5"></path><path d="M1156.46 388.69L1156.46 388.69" stroke="rgba(234, 144, 108, 1)" stroke-width="1.5"></path><path d="M1156.46 388.69L1091.73 500.13" stroke="rgba(234, 144, 108, 1)" stroke-width="1.5"></path><path d="M1156.46 388.69L1294.34 351.31" stroke="rgba(234, 144, 108, 1)" stroke-width="1.5"></path><path d="M1156.46 388.69L1263.93 255.41" stroke="rgba(234, 144, 108, 1)" stroke-width="1.5"></path><path d="M1091.73 500.13L1091.73 500.13" stroke="rgba(234, 144, 108, 1)" stroke-width="1.5"></path><path d="M1091.73 500.13L1268.34 557.34" stroke="rgba(234, 144, 108, 1)" stroke-width="1.5"></path><path d="M1113.4 685.64L1113.4 685.64" stroke="rgba(234, 144, 108, 1)" stroke-width="1.5"></path><path d="M1113.4 685.64L1237.95 661.8" stroke="rgba(234, 144, 108, 1)" stroke-width="1.5"></path><path d="M1277.86 -104.45L1277.86 -104.45" stroke="rgba(234, 144, 108, 1)" stroke-width="1.5"></path><path d="M1277.86 -104.45L1406.72 -67.78" stroke="rgba(234, 144, 108, 1)" stroke-width="1.5"></path><path d="M1277.86 -104.45L1302.35 100.25" stroke="rgba(234, 144, 108, 1)" stroke-width="1.5"></path><path d="M1277.86 -104.45L1451.97 109.37" stroke="rgba(234, 144, 108, 1)" stroke-width="1.5"></path><path d="M1277.86 -104.45L984.49 -76.14" stroke="rgba(234, 144, 108, 1)" stroke-width="1.5"></path><path d="M1277.86 -104.45L1588.85 -72.31" stroke="rgba(234, 144, 108, 1)" stroke-width="1.5"></path><path d="M1302.35 100.25L1302.35 100.25" stroke="rgba(234, 144, 108, 1)" stroke-width="1.5"></path><path d="M1302.35 100.25L1451.97 109.37" stroke="rgba(234, 144, 108, 1)" stroke-width="1.5"></path><path d="M1302.35 100.25L1263.93 255.41" stroke="rgba(234, 144, 108, 1)" stroke-width="1.5"></path><path d="M1263.93 255.41L1263.93 255.41" stroke="rgba(234, 144, 108, 1)" stroke-width="1.5"></path><path d="M1263.93 255.41L1294.34 351.31" stroke="rgba(234, 144, 108, 1)" stroke-width="1.5"></path><path d="M1263.93 255.41L1414.14 219.27" stroke="rgba(234, 144, 108, 1)" stroke-width="1.5"></path><path d="M1294.34 351.31L1294.34 351.31" stroke="rgba(234, 144, 108, 1)" stroke-width="1.5"></path><path d="M1294.34 351.31L1389 398.15" stroke="rgba(234, 144, 108, 1)" stroke-width="1.5"></path><path d="M1268.34 557.34L1268.34 557.34" stroke="rgba(234, 144, 108, 1)" stroke-width="1.5"></path><path d="M1268.34 557.34L1237.95 661.8" stroke="rgba(234, 144, 108, 1)" stroke-width="1.5"></path><path d="M1268.34 557.34L1453.48 533.8" stroke="rgba(234, 144, 108, 1)" stroke-width="1.5"></path><path d="M1268.34 557.34L1412.52 680.67" stroke="rgba(234, 144, 108, 1)" stroke-width="1.5"></path><path d="M1237.95 661.8L1237.95 661.8" stroke="rgba(234, 144, 108, 1)" stroke-width="1.5"></path><path d="M1237.95 661.8L1412.52 680.67" stroke="rgba(234, 144, 108, 1)" stroke-width="1.5"></path><path d="M1237.95 661.8L1091.73 500.13" stroke="rgba(234, 144, 108, 1)" stroke-width="1.5"></path><path d="M1237.95 661.8L1453.48 533.8" stroke="rgba(234, 144, 108, 1)" stroke-width="1.5"></path><path d="M1237.95 661.8L960.81 702.07" stroke="rgba(234, 144, 108, 1)" stroke-width="1.5"></path><path d="M1406.72 -67.78L1406.72 -67.78" stroke="rgba(234, 144, 108, 1)" stroke-width="1.5"></path><path d="M1406.72 -67.78L1588.85 -72.31" stroke="rgba(234, 144, 108, 1)" stroke-width="1.5"></path><path d="M1451.97 109.37L1451.97 109.37" stroke="rgba(234, 144, 108, 1)" stroke-width="1.5"></path><path d="M1451.97 109.37L1414.14 219.27" stroke="rgba(234, 144, 108, 1)" stroke-width="1.5"></path><path d="M1451.97 109.37L1580 89.69" stroke="rgba(234, 144, 108, 1)" stroke-width="1.5"></path><path d="M1451.97 109.37L1544.39 247.07" stroke="rgba(234, 144, 108, 1)" stroke-width="1.5"></path><path d="M1451.97 109.37L1406.72 -67.78" stroke="rgba(234, 144, 108, 1)" stroke-width="1.5"></path><path d="M1414.14 219.27L1414.14 219.27" stroke="rgba(234, 144, 108, 1)" stroke-width="1.5"></path><path d="M1389 398.15L1389 398.15" stroke="rgba(234, 144, 108, 1)" stroke-width="1.5"></path><path d="M1389 398.15L1453.48 533.8" stroke="rgba(234, 144, 108, 1)" stroke-width="1.5"></path><path d="M1389 398.15L1542.83 396.88" stroke="rgba(234, 144, 108, 1)" stroke-width="1.5"></path><path d="M1389 398.15L1414.14 219.27" stroke="rgba(234, 144, 108, 1)" stroke-width="1.5"></path><path d="M1453.48 533.8L1453.48 533.8" stroke="rgba(234, 144, 108, 1)" stroke-width="1.5"></path><path d="M1453.48 533.8L1546.53 557.35" stroke="rgba(234, 144, 108, 1)" stroke-width="1.5"></path><path d="M1453.48 533.8L1412.52 680.67" stroke="rgba(234, 144, 108, 1)" stroke-width="1.5"></path><path d="M1453.48 533.8L1542.83 396.88" stroke="rgba(234, 144, 108, 1)" stroke-width="1.5"></path><path d="M1412.52 680.67L1412.52 680.67" stroke="rgba(234, 144, 108, 1)" stroke-width="1.5"></path><path d="M1412.52 680.67L1580.85 656.19" stroke="rgba(234, 144, 108, 1)" stroke-width="1.5"></path><path d="M1412.52 680.67L1546.53 557.35" stroke="rgba(234, 144, 108, 1)" stroke-width="1.5"></path><path d="M1412.52 680.67L1389 398.15" stroke="rgba(234, 144, 108, 1)" stroke-width="1.5"></path><path d="M1588.85 -72.31L1588.85 -72.31" stroke="rgba(234, 144, 108, 1)" stroke-width="1.5"></path><path d="M1588.85 -72.31L1580 89.69" stroke="rgba(234, 144, 108, 1)" stroke-width="1.5"></path><path d="M1588.85 -72.31L1451.97 109.37" stroke="rgba(234, 144, 108, 1)" stroke-width="1.5"></path><path d="M1580 89.69L1580 89.69" stroke="rgba(234, 144, 108, 1)" stroke-width="1.5"></path><path d="M1580 89.69L1544.39 247.07" stroke="rgba(234, 144, 108, 1)" stroke-width="1.5"></path><path d="M1580 89.69L1414.14 219.27" stroke="rgba(234, 144, 108, 1)" stroke-width="1.5"></path><path d="M1580 89.69L1406.72 -67.78" stroke="rgba(234, 144, 108, 1)" stroke-width="1.5"></path><path d="M1580 89.69L1302.35 100.25" stroke="rgba(234, 144, 108, 1)" stroke-width="1.5"></path><path d="M1544.39 247.07L1544.39 247.07" stroke="rgba(234, 144, 108, 1)" stroke-width="1.5"></path><path d="M1544.39 247.07L1414.14 219.27" stroke="rgba(234, 144, 108, 1)" stroke-width="1.5"></path><path d="M1544.39 247.07L1542.83 396.88" stroke="rgba(234, 144, 108, 1)" stroke-width="1.5"></path><path d="M1544.39 247.07L1389 398.15" stroke="rgba(234, 144, 108, 1)" stroke-width="1.5"></path><path d="M1544.39 247.07L1294.34 351.31" stroke="rgba(234, 144, 108, 1)" stroke-width="1.5"></path><path d="M1542.83 396.88L1542.83 396.88" stroke="rgba(234, 144, 108, 1)" stroke-width="1.5"></path><path d="M1546.53 557.35L1546.53 557.35" stroke="rgba(234, 144, 108, 1)" stroke-width="1.5"></path><path d="M1546.53 557.35L1580.85 656.19" stroke="rgba(234, 144, 108, 1)" stroke-width="1.5"></path><path d="M1546.53 557.35L1542.83 396.88" stroke="rgba(234, 144, 108, 1)" stroke-width="1.5"></path><path d="M1580.85 656.19L1580.85 656.19" stroke="rgba(234, 144, 108, 1)" stroke-width="1.5"></path><path d="M1580.85 656.19L1453.48 533.8" stroke="rgba(234, 144, 108, 1)" stroke-width="1.5"></path><path d="M1580.85 656.19L1542.83 396.88" stroke="rgba(234, 144, 108, 1)" stroke-width="1.5"></path><path d="M1580.85 656.19L1389 398.15" stroke="rgba(234, 144, 108, 1)" stroke-width="1.5"></path><path d="M1580.85 656.19L1268.34 557.34" stroke="rgba(234, 144, 108, 1)" stroke-width="1.5"></path><circle r="5" cx="-55.46" cy="389.68" fill="rgba(234, 144, 108, 1)"></circle><circle r="5" cx="-40.18" cy="685.2" fill="rgba(234, 144, 108, 1)"></circle><circle r="5" cx="104.34" cy="376.81" fill="rgba(234, 144, 108, 1)"></circle><circle r="5" cx="107.74" cy="528.91" fill="rgba(234, 144, 108, 1)"></circle><circle r="5" cx="110.9" cy="684.61" fill="rgba(234, 144, 108, 1)"></circle><circle r="5" cx="244.69" cy="344.01" fill="rgba(234, 144, 108, 1)"></circle><circle r="5" cx="202.15" cy="527.06" fill="rgba(234, 144, 108, 1)"></circle><circle r="5" cx="189.11" cy="675.64" fill="rgba(234, 144, 108, 1)"></circle><circle r="5" cx="379.38" cy="345.37" fill="rgba(234, 144, 108, 1)"></circle><circle r="5" cx="388.39" cy="536.41" fill="rgba(234, 144, 108, 1)"></circle><circle r="5" cx="378.74" cy="639.58" fill="rgba(234, 144, 108, 1)"></circle><circle r="5" cx="549.85" cy="256.68" fill="rgba(234, 144, 108, 1)"></circle><circle r="5" cx="495.21" cy="387.68" fill="rgba(234, 144, 108, 1)"></circle><circle r="5" cx="525.67" cy="539.67" fill="rgba(234, 144, 108, 1)"></circle><circle r="5" cx="559.1" cy="702.8" fill="rgba(234, 144, 108, 1)"></circle><circle r="5" cx="658.85" cy="356.04" fill="rgba(234, 144, 108, 1)"></circle><circle r="5" cx="654.44" cy="508.71" fill="rgba(234, 144, 108, 1)"></circle><circle r="5" cx="648.93" cy="676.31" fill="rgba(234, 144, 108, 1)"></circle><circle r="5" cx="789.86" cy="227.44" fill="rgba(234, 144, 108, 1)"></circle><circle r="5" cx="829.76" cy="356.01" fill="rgba(234, 144, 108, 1)"></circle><circle r="5" cx="801.3" cy="524.4" fill="rgba(234, 144, 108, 1)"></circle><circle r="5" cx="856.25" cy="664.83" fill="rgba(234, 144, 108, 1)"></circle><circle r="5" cx="984.49" cy="-76.14" fill="rgba(234, 144, 108, 1)"></circle><circle r="5" cx="953.82" cy="89.6" fill="rgba(234, 144, 108, 1)"></circle><circle r="5" cx="969.4" cy="199.53" fill="rgba(234, 144, 108, 1)"></circle><circle r="5" cx="988.08" cy="378.63" fill="rgba(234, 144, 108, 1)"></circle><circle r="5" cx="951.42" cy="505.59" fill="rgba(234, 144, 108, 1)"></circle><circle r="5" cx="960.81" cy="702.07" fill="rgba(234, 144, 108, 1)"></circle><circle r="5" cx="1150.64" cy="-103.6" fill="rgba(234, 144, 108, 1)"></circle><circle r="5" cx="1114.76" cy="199.29" fill="rgba(234, 144, 108, 1)"></circle><circle r="5" cx="1156.46" cy="388.69" fill="rgba(234, 144, 108, 1)"></circle><circle r="5" cx="1091.73" cy="500.13" fill="rgba(234, 144, 108, 1)"></circle><circle r="5" cx="1113.4" cy="685.64" fill="rgba(234, 144, 108, 1)"></circle><circle r="5" cx="1277.86" cy="-104.45" fill="rgba(234, 144, 108, 1)"></circle><circle r="5" cx="1302.35" cy="100.25" fill="rgba(234, 144, 108, 1)"></circle><circle r="5" cx="1263.93" cy="255.41" fill="rgba(234, 144, 108, 1)"></circle><circle r="5" cx="1294.34" cy="351.31" fill="rgba(234, 144, 108, 1)"></circle><circle r="5" cx="1268.34" cy="557.34" fill="rgba(234, 144, 108, 1)"></circle><circle r="5" cx="1237.95" cy="661.8" fill="rgba(234, 144, 108, 1)"></circle><circle r="5" cx="1406.72" cy="-67.78" fill="rgba(234, 144, 108, 1)"></circle><circle r="5" cx="1451.97" cy="109.37" fill="rgba(234, 144, 108, 1)"></circle><circle r="5" cx="1414.14" cy="219.27" fill="rgba(234, 144, 108, 1)"></circle><circle r="5" cx="1389" cy="398.15" fill="rgba(234, 144, 108, 1)"></circle><circle r="5" cx="1453.48" cy="533.8" fill="rgba(234, 144, 108, 1)"></circle><circle r="5" cx="1412.52" cy="680.67" fill="rgba(234, 144, 108, 1)"></circle><circle r="5" cx="1588.85" cy="-72.31" fill="rgba(234, 144, 108, 1)"></circle><circle r="5" cx="1580" cy="89.69" fill="rgba(234, 144, 108, 1)"></circle><circle r="5" cx="1544.39" cy="247.07" fill="rgba(234, 144, 108, 1)"></circle><circle r="5" cx="1542.83" cy="396.88" fill="rgba(234, 144, 108, 1)"></circle><circle r="5" cx="1546.53" cy="557.35" fill="rgba(234, 144, 108, 1)"></circle><circle r="5" cx="1580.85" cy="656.19" fill="rgba(234, 144, 108, 1)"></circle><path d="M108.54 704.8L108.54 704.8" stroke="hsl(0.39999999999997726, 81.7%, 50.2%)" stroke-width="1.5"></path><path d="M108.54 704.8L214.81 675.88" stroke="hsl(0.39999999999997726, 81.7%, 50.2%)" stroke-width="1.5"></path><path d="M108.54 704.8L194.8 533.11" stroke="hsl(0.39999999999997726, 81.7%, 50.2%)" stroke-width="1.5"></path><path d="M108.54 704.8L62.93 504.82" stroke="hsl(0.39999999999997726, 81.7%, 50.2%)" stroke-width="1.5"></path><path d="M214.81 675.88L214.81 675.88" stroke="hsl(0.39999999999997726, 81.7%, 50.2%)" stroke-width="1.5"></path><path d="M214.81 675.88L194.8 533.11" stroke="hsl(0.39999999999997726, 81.7%, 50.2%)" stroke-width="1.5"></path><path d="M214.81 675.88L381.81 673.52" stroke="hsl(0.39999999999997726, 81.7%, 50.2%)" stroke-width="1.5"></path><path d="M669.61 375.52L669.61 375.52" stroke="hsl(0.39999999999997726, 81.7%, 50.2%)" stroke-width="1.5"></path><path d="M669.61 375.52L794.3 381.46" stroke="hsl(0.39999999999997726, 81.7%, 50.2%)" stroke-width="1.5"></path><path d="M669.61 375.52L539.53 492.59" stroke="hsl(0.39999999999997726, 81.7%, 50.2%)" stroke-width="1.5"></path><path d="M669.61 375.52L823.37 508.31" stroke="hsl(0.39999999999997726, 81.7%, 50.2%)" stroke-width="1.5"></path><path d="M669.61 375.52L959.37 371.43" stroke="hsl(0.39999999999997726, 81.7%, 50.2%)" stroke-width="1.5"></path><path d="M669.61 375.52L655.71 667.26" stroke="hsl(0.39999999999997726, 81.7%, 50.2%)" stroke-width="1.5"></path><path d="M669.61 375.52L849.34 651.41" stroke="hsl(0.39999999999997726, 81.7%, 50.2%)" stroke-width="1.5"></path><path d="M999.68 548.71L999.68 548.71" stroke="hsl(0.39999999999997726, 81.7%, 50.2%)" stroke-width="1.5"></path><path d="M999.68 548.71L952.1 639" stroke="hsl(0.39999999999997726, 81.7%, 50.2%)" stroke-width="1.5"></path><path d="M999.68 548.71L1130.15 517.25" stroke="hsl(0.39999999999997726, 81.7%, 50.2%)" stroke-width="1.5"></path><path d="M999.68 548.71L1100.92 663.75" stroke="hsl(0.39999999999997726, 81.7%, 50.2%)" stroke-width="1.5"></path><path d="M999.68 548.71L823.37 508.31" stroke="hsl(0.39999999999997726, 81.7%, 50.2%)" stroke-width="1.5"></path><path d="M999.68 548.71L959.37 371.43" stroke="hsl(0.39999999999997726, 81.7%, 50.2%)" stroke-width="1.5"></path><path d="M999.68 548.71L849.34 651.41" stroke="hsl(0.39999999999997726, 81.7%, 50.2%)" stroke-width="1.5"></path><path d="M1260.96 -103.6L1260.96 -103.6" stroke="hsl(0.39999999999997726, 81.7%, 50.2%)" stroke-width="1.5"></path><path d="M1260.96 -103.6L1264.44 94.26" stroke="hsl(0.39999999999997726, 81.7%, 50.2%)" stroke-width="1.5"></path><path d="M1583.64 668.02L1583.64 668.02" stroke="hsl(0.39999999999997726, 81.7%, 50.2%)" stroke-width="1.5"></path><path d="M1583.64 668.02L1597.84 540.19" stroke="hsl(0.39999999999997726, 81.7%, 50.2%)" stroke-width="1.5"></path><path d="M-61.76 561.65L-61.76 561.65" stroke="hsl(0.39999999999997726, 81.7%, 50.2%)" stroke-width="1.5"></path><path d="M-61.76 561.65L62.93 504.82" stroke="hsl(0.39999999999997726, 81.7%, 50.2%)" stroke-width="1.5"></path><path d="M62.93 504.82L62.93 504.82" stroke="hsl(0.39999999999997726, 81.7%, 50.2%)" stroke-width="1.5"></path><path d="M62.93 504.82L194.8 533.11" stroke="hsl(0.39999999999997726, 81.7%, 50.2%)" stroke-width="1.5"></path><path d="M62.93 504.82L214.81 675.88" stroke="hsl(0.39999999999997726, 81.7%, 50.2%)" stroke-width="1.5"></path><path d="M62.93 504.82L380.14 534.56" stroke="hsl(0.39999999999997726, 81.7%, 50.2%)" stroke-width="1.5"></path><path d="M62.93 504.82L381.81 673.52" stroke="hsl(0.39999999999997726, 81.7%, 50.2%)" stroke-width="1.5"></path><path d="M194.8 533.11L194.8 533.11" stroke="hsl(0.39999999999997726, 81.7%, 50.2%)" stroke-width="1.5"></path><path d="M194.8 533.11L380.14 534.56" stroke="hsl(0.39999999999997726, 81.7%, 50.2%)" stroke-width="1.5"></path><path d="M194.8 533.11L381.81 673.52" stroke="hsl(0.39999999999997726, 81.7%, 50.2%)" stroke-width="1.5"></path><path d="M194.8 533.11L-61.76 561.65" stroke="hsl(0.39999999999997726, 81.7%, 50.2%)" stroke-width="1.5"></path><path d="M380.14 534.56L380.14 534.56" stroke="hsl(0.39999999999997726, 81.7%, 50.2%)" stroke-width="1.5"></path><path d="M380.14 534.56L381.81 673.52" stroke="hsl(0.39999999999997726, 81.7%, 50.2%)" stroke-width="1.5"></path><path d="M380.14 534.56L539.53 492.59" stroke="hsl(0.39999999999997726, 81.7%, 50.2%)" stroke-width="1.5"></path><path d="M380.14 534.56L214.81 675.88" stroke="hsl(0.39999999999997726, 81.7%, 50.2%)" stroke-width="1.5"></path><path d="M380.14 534.56L550.75 688.3" stroke="hsl(0.39999999999997726, 81.7%, 50.2%)" stroke-width="1.5"></path><path d="M380.14 534.56L655.71 667.26" stroke="hsl(0.39999999999997726, 81.7%, 50.2%)" stroke-width="1.5"></path><path d="M381.81 673.52L381.81 673.52" stroke="hsl(0.39999999999997726, 81.7%, 50.2%)" stroke-width="1.5"></path><path d="M381.81 673.52L550.75 688.3" stroke="hsl(0.39999999999997726, 81.7%, 50.2%)" stroke-width="1.5"></path><path d="M539.53 492.59L539.53 492.59" stroke="hsl(0.39999999999997726, 81.7%, 50.2%)" stroke-width="1.5"></path><path d="M550.75 688.3L550.75 688.3" stroke="hsl(0.39999999999997726, 81.7%, 50.2%)" stroke-width="1.5"></path><path d="M550.75 688.3L655.71 667.26" stroke="hsl(0.39999999999997726, 81.7%, 50.2%)" stroke-width="1.5"></path><path d="M655.71 667.26L655.71 667.26" stroke="hsl(0.39999999999997726, 81.7%, 50.2%)" stroke-width="1.5"></path><path d="M655.71 667.26L849.34 651.41" stroke="hsl(0.39999999999997726, 81.7%, 50.2%)" stroke-width="1.5"></path><path d="M655.71 667.26L539.53 492.59" stroke="hsl(0.39999999999997726, 81.7%, 50.2%)" stroke-width="1.5"></path><path d="M655.71 667.26L823.37 508.31" stroke="hsl(0.39999999999997726, 81.7%, 50.2%)" stroke-width="1.5"></path><path d="M655.71 667.26L381.81 673.52" stroke="hsl(0.39999999999997726, 81.7%, 50.2%)" stroke-width="1.5"></path><path d="M794.3 381.46L794.3 381.46" stroke="hsl(0.39999999999997726, 81.7%, 50.2%)" stroke-width="1.5"></path><path d="M794.3 381.46L823.37 508.31" stroke="hsl(0.39999999999997726, 81.7%, 50.2%)" stroke-width="1.5"></path><path d="M794.3 381.46L959.37 371.43" stroke="hsl(0.39999999999997726, 81.7%, 50.2%)" stroke-width="1.5"></path><path d="M794.3 381.46L999.68 548.71" stroke="hsl(0.39999999999997726, 81.7%, 50.2%)" stroke-width="1.5"></path><path d="M794.3 381.46L849.34 651.41" stroke="hsl(0.39999999999997726, 81.7%, 50.2%)" stroke-width="1.5"></path><path d="M823.37 508.31L823.37 508.31" stroke="hsl(0.39999999999997726, 81.7%, 50.2%)" stroke-width="1.5"></path><path d="M823.37 508.31L849.34 651.41" stroke="hsl(0.39999999999997726, 81.7%, 50.2%)" stroke-width="1.5"></path><path d="M849.34 651.41L849.34 651.41" stroke="hsl(0.39999999999997726, 81.7%, 50.2%)" stroke-width="1.5"></path><path d="M849.34 651.41L952.1 639" stroke="hsl(0.39999999999997726, 81.7%, 50.2%)" stroke-width="1.5"></path><path d="M959.37 371.43L959.37 371.43" stroke="hsl(0.39999999999997726, 81.7%, 50.2%)" stroke-width="1.5"></path><path d="M959.37 371.43L823.37 508.31" stroke="hsl(0.39999999999997726, 81.7%, 50.2%)" stroke-width="1.5"></path><path d="M959.37 371.43L1121.49 256.66" stroke="hsl(0.39999999999997726, 81.7%, 50.2%)" stroke-width="1.5"></path><path d="M959.37 371.43L1130.15 517.25" stroke="hsl(0.39999999999997726, 81.7%, 50.2%)" stroke-width="1.5"></path><path d="M959.37 371.43L952.1 639" stroke="hsl(0.39999999999997726, 81.7%, 50.2%)" stroke-width="1.5"></path><path d="M952.1 639L952.1 639" stroke="hsl(0.39999999999997726, 81.7%, 50.2%)" stroke-width="1.5"></path><path d="M952.1 639L1100.92 663.75" stroke="hsl(0.39999999999997726, 81.7%, 50.2%)" stroke-width="1.5"></path><path d="M952.1 639L823.37 508.31" stroke="hsl(0.39999999999997726, 81.7%, 50.2%)" stroke-width="1.5"></path><path d="M952.1 639L1130.15 517.25" stroke="hsl(0.39999999999997726, 81.7%, 50.2%)" stroke-width="1.5"></path><path d="M1121.49 256.66L1121.49 256.66" stroke="hsl(0.39999999999997726, 81.7%, 50.2%)" stroke-width="1.5"></path><path d="M1121.49 256.66L1268.4 239.97" stroke="hsl(0.39999999999997726, 81.7%, 50.2%)" stroke-width="1.5"></path><path d="M1121.49 256.66L1303.11 370.73" stroke="hsl(0.39999999999997726, 81.7%, 50.2%)" stroke-width="1.5"></path><path d="M1121.49 256.66L1264.44 94.26" stroke="hsl(0.39999999999997726, 81.7%, 50.2%)" stroke-width="1.5"></path><path d="M1121.49 256.66L1130.15 517.25" stroke="hsl(0.39999999999997726, 81.7%, 50.2%)" stroke-width="1.5"></path><path d="M1121.49 256.66L1397.51 227.2" stroke="hsl(0.39999999999997726, 81.7%, 50.2%)" stroke-width="1.5"></path><path d="M1130.15 517.25L1130.15 517.25" stroke="hsl(0.39999999999997726, 81.7%, 50.2%)" stroke-width="1.5"></path><path d="M1130.15 517.25L1100.92 663.75" stroke="hsl(0.39999999999997726, 81.7%, 50.2%)" stroke-width="1.5"></path><path d="M1130.15 517.25L1280.55 544.35" stroke="hsl(0.39999999999997726, 81.7%, 50.2%)" stroke-width="1.5"></path><path d="M1100.92 663.75L1100.92 663.75" stroke="hsl(0.39999999999997726, 81.7%, 50.2%)" stroke-width="1.5"></path><path d="M1264.44 94.26L1264.44 94.26" stroke="hsl(0.39999999999997726, 81.7%, 50.2%)" stroke-width="1.5"></path><path d="M1264.44 94.26L1268.4 239.97" stroke="hsl(0.39999999999997726, 81.7%, 50.2%)" stroke-width="1.5"></path><path d="M1264.44 94.26L1436.71 99.99" stroke="hsl(0.39999999999997726, 81.7%, 50.2%)" stroke-width="1.5"></path><path d="M1264.44 94.26L1397.51 227.2" stroke="hsl(0.39999999999997726, 81.7%, 50.2%)" stroke-width="1.5"></path><path d="M1264.44 94.26L1303.11 370.73" stroke="hsl(0.39999999999997726, 81.7%, 50.2%)" stroke-width="1.5"></path><path d="M1268.4 239.97L1268.4 239.97" stroke="hsl(0.39999999999997726, 81.7%, 50.2%)" stroke-width="1.5"></path><path d="M1268.4 239.97L1397.51 227.2" stroke="hsl(0.39999999999997726, 81.7%, 50.2%)" stroke-width="1.5"></path><path d="M1268.4 239.97L1303.11 370.73" stroke="hsl(0.39999999999997726, 81.7%, 50.2%)" stroke-width="1.5"></path><path d="M1268.4 239.97L1421.25 383.59" stroke="hsl(0.39999999999997726, 81.7%, 50.2%)" stroke-width="1.5"></path><path d="M1303.11 370.73L1303.11 370.73" stroke="hsl(0.39999999999997726, 81.7%, 50.2%)" stroke-width="1.5"></path><path d="M1303.11 370.73L1421.25 383.59" stroke="hsl(0.39999999999997726, 81.7%, 50.2%)" stroke-width="1.5"></path><path d="M1303.11 370.73L1397.51 227.2" stroke="hsl(0.39999999999997726, 81.7%, 50.2%)" stroke-width="1.5"></path><path d="M1280.55 544.35L1280.55 544.35" stroke="hsl(0.39999999999997726, 81.7%, 50.2%)" stroke-width="1.5"></path><path d="M1280.55 544.35L1306.1 668.72" stroke="hsl(0.39999999999997726, 81.7%, 50.2%)" stroke-width="1.5"></path><path d="M1280.55 544.35L1422.42 512.75" stroke="hsl(0.39999999999997726, 81.7%, 50.2%)" stroke-width="1.5"></path><path d="M1280.55 544.35L1303.11 370.73" stroke="hsl(0.39999999999997726, 81.7%, 50.2%)" stroke-width="1.5"></path><path d="M1280.55 544.35L1421.25 383.59" stroke="hsl(0.39999999999997726, 81.7%, 50.2%)" stroke-width="1.5"></path><path d="M1306.1 668.72L1306.1 668.72" stroke="hsl(0.39999999999997726, 81.7%, 50.2%)" stroke-width="1.5"></path><path d="M1306.1 668.72L1417.85 709.36" stroke="hsl(0.39999999999997726, 81.7%, 50.2%)" stroke-width="1.5"></path><path d="M1306.1 668.72L1422.42 512.75" stroke="hsl(0.39999999999997726, 81.7%, 50.2%)" stroke-width="1.5"></path><path d="M1436.71 99.99L1436.71 99.99" stroke="hsl(0.39999999999997726, 81.7%, 50.2%)" stroke-width="1.5"></path><path d="M1436.71 99.99L1549.65 74.05" stroke="hsl(0.39999999999997726, 81.7%, 50.2%)" stroke-width="1.5"></path><path d="M1436.71 99.99L1397.51 227.2" stroke="hsl(0.39999999999997726, 81.7%, 50.2%)" stroke-width="1.5"></path><path d="M1397.51 227.2L1397.51 227.2" stroke="hsl(0.39999999999997726, 81.7%, 50.2%)" stroke-width="1.5"></path><path d="M1397.51 227.2L1421.25 383.59" stroke="hsl(0.39999999999997726, 81.7%, 50.2%)" stroke-width="1.5"></path><path d="M1421.25 383.59L1421.25 383.59" stroke="hsl(0.39999999999997726, 81.7%, 50.2%)" stroke-width="1.5"></path><path d="M1421.25 383.59L1422.42 512.75" stroke="hsl(0.39999999999997726, 81.7%, 50.2%)" stroke-width="1.5"></path><path d="M1421.25 383.59L1553.6 363.36" stroke="hsl(0.39999999999997726, 81.7%, 50.2%)" stroke-width="1.5"></path><path d="M1422.42 512.75L1422.42 512.75" stroke="hsl(0.39999999999997726, 81.7%, 50.2%)" stroke-width="1.5"></path><path d="M1417.85 709.36L1417.85 709.36" stroke="hsl(0.39999999999997726, 81.7%, 50.2%)" stroke-width="1.5"></path><path d="M1417.85 709.36L1583.64 668.02" stroke="hsl(0.39999999999997726, 81.7%, 50.2%)" stroke-width="1.5"></path><path d="M1417.85 709.36L1422.42 512.75" stroke="hsl(0.39999999999997726, 81.7%, 50.2%)" stroke-width="1.5"></path><path d="M1417.85 709.36L1280.55 544.35" stroke="hsl(0.39999999999997726, 81.7%, 50.2%)" stroke-width="1.5"></path><path d="M1417.85 709.36L1597.84 540.19" stroke="hsl(0.39999999999997726, 81.7%, 50.2%)" stroke-width="1.5"></path><path d="M1603.22 -86.43L1603.22 -86.43" stroke="hsl(0.39999999999997726, 81.7%, 50.2%)" stroke-width="1.5"></path><path d="M1603.22 -86.43L1549.65 74.05" stroke="hsl(0.39999999999997726, 81.7%, 50.2%)" stroke-width="1.5"></path><path d="M1603.22 -86.43L1436.71 99.99" stroke="hsl(0.39999999999997726, 81.7%, 50.2%)" stroke-width="1.5"></path><path d="M1603.22 -86.43L1606.33 238.66" stroke="hsl(0.39999999999997726, 81.7%, 50.2%)" stroke-width="1.5"></path><path d="M1603.22 -86.43L1260.96 -103.6" stroke="hsl(0.39999999999997726, 81.7%, 50.2%)" stroke-width="1.5"></path><path d="M1549.65 74.05L1549.65 74.05" stroke="hsl(0.39999999999997726, 81.7%, 50.2%)" stroke-width="1.5"></path><path d="M1549.65 74.05L1606.33 238.66" stroke="hsl(0.39999999999997726, 81.7%, 50.2%)" stroke-width="1.5"></path><path d="M1606.33 238.66L1606.33 238.66" stroke="hsl(0.39999999999997726, 81.7%, 50.2%)" stroke-width="1.5"></path><path d="M1606.33 238.66L1553.6 363.36" stroke="hsl(0.39999999999997726, 81.7%, 50.2%)" stroke-width="1.5"></path><path d="M1553.6 363.36L1553.6 363.36" stroke="hsl(0.39999999999997726, 81.7%, 50.2%)" stroke-width="1.5"></path><path d="M1553.6 363.36L1597.84 540.19" stroke="hsl(0.39999999999997726, 81.7%, 50.2%)" stroke-width="1.5"></path><path d="M1553.6 363.36L1422.42 512.75" stroke="hsl(0.39999999999997726, 81.7%, 50.2%)" stroke-width="1.5"></path><path d="M1553.6 363.36L1397.51 227.2" stroke="hsl(0.39999999999997726, 81.7%, 50.2%)" stroke-width="1.5"></path><path d="M1597.84 540.19L1597.84 540.19" stroke="hsl(0.39999999999997726, 81.7%, 50.2%)" stroke-width="1.5"></path><path d="M1597.84 540.19L1422.42 512.75" stroke="hsl(0.39999999999997726, 81.7%, 50.2%)" stroke-width="1.5"></path><path d="M1597.84 540.19L1421.25 383.59" stroke="hsl(0.39999999999997726, 81.7%, 50.2%)" stroke-width="1.5"></path><circle r="25" cx="108.54" cy="704.8" fill="url(&quot;#SvgjsRadialGradient1037&quot;)"></circle><circle r="25" cx="214.81" cy="675.88" fill="url(&quot;#SvgjsRadialGradient1037&quot;)"></circle><circle r="25" cx="669.61" cy="375.52" fill="url(&quot;#SvgjsRadialGradient1037&quot;)"></circle><circle r="25" cx="999.68" cy="548.71" fill="url(&quot;#SvgjsRadialGradient1037&quot;)"></circle><circle r="25" cx="1260.96" cy="-103.6" fill="url(&quot;#SvgjsRadialGradient1037&quot;)"></circle><circle r="25" cx="1583.64" cy="668.02" fill="url(&quot;#SvgjsRadialGradient1037&quot;)"></circle><circle r="5" cx="-61.76" cy="561.65" fill="#d98989"></circle><circle r="5" cx="62.93" cy="504.82" fill="#d98989"></circle><circle r="5" cx="194.8" cy="533.11" fill="#d98989"></circle><circle r="5" cx="380.14" cy="534.56" fill="#d98989"></circle><circle r="5" cx="381.81" cy="673.52" fill="#d98989"></circle><circle r="5" cx="539.53" cy="492.59" fill="#d98989"></circle><circle r="5" cx="550.75" cy="688.3" fill="#d98989"></circle><circle r="5" cx="655.71" cy="667.26" fill="#d98989"></circle><circle r="5" cx="794.3" cy="381.46" fill="#d98989"></circle><circle r="5" cx="823.37" cy="508.31" fill="#d98989"></circle><circle r="5" cx="849.34" cy="651.41" fill="#d98989"></circle><circle r="5" cx="959.37" cy="371.43" fill="#d98989"></circle><circle r="5" cx="952.1" cy="639" fill="#d98989"></circle><circle r="5" cx="1121.49" cy="256.66" fill="#d98989"></circle><circle r="5" cx="1130.15" cy="517.25" fill="#d98989"></circle><circle r="5" cx="1100.92" cy="663.75" fill="#d98989"></circle><circle r="5" cx="1264.44" cy="94.26" fill="#d98989"></circle><circle r="5" cx="1268.4" cy="239.97" fill="#d98989"></circle><circle r="5" cx="1303.11" cy="370.73" fill="#d98989"></circle><circle r="5" cx="1280.55" cy="544.35" fill="#d98989"></circle><circle r="5" cx="1306.1" cy="668.72" fill="#d98989"></circle><circle r="5" cx="1436.71" cy="99.99" fill="#d98989"></circle><circle r="5" cx="1397.51" cy="227.2" fill="#d98989"></circle><circle r="5" cx="1421.25" cy="383.59" fill="#d98989"></circle><circle r="5" cx="1422.42" cy="512.75" fill="#d98989"></circle><circle r="5" cx="1417.85" cy="709.36" fill="#d98989"></circle><circle r="5" cx="1603.22" cy="-86.43" fill="#d98989"></circle><circle r="5" cx="1549.65" cy="74.05" fill="#d98989"></circle><circle r="5" cx="1606.33" cy="238.66" fill="#d98989"></circle><circle r="5" cx="1553.6" cy="363.36" fill="#d98989"></circle><circle r="5" cx="1597.84" cy="540.19" fill="#d98989"></circle></g><defs><mask id="SvgjsMask1036"><rect width="1440" height="554" fill="#ffffff"></rect></mask><radialGradient id="SvgjsRadialGradient1037"><stop stop-color="#ffffff" offset="0.1"></stop><stop stop-color="rgba(179, 19, 18, 1)" offset="0.2"></stop><stop stop-color="rgba(179, 19, 18, 0)" offset="1"></stop></radialGradient></defs></svg>