<svg xmlns="http://www.w3.org/2000/svg" version="1.1" xmlns:xlink="http://www.w3.org/1999/xlink" xmlns:svgjs="http://svgjs.dev/svgjs" width="1440" height="560" preserveAspectRatio="none" viewBox="0 0 1440 560"><g mask="url(&quot;#SvgjsMask1009&quot;)" fill="none"><rect width="1440" height="560" x="0" y="0" fill="rgba(225, 225, 225, 1)"></rect><path d="M -417.89196667275564,428 C -321.89,373.6 -129.89,171.8 62.108033327244385,156 C 254.11,140.2 350.11,338 542.1080333272444,349 C 734.11,360 830.11,222.4 1022.1080333272444,211 C 1214.11,199.6 1418.53,293.4 1502.1080333272444,292 C 1585.69,290.6 1452.42,221.6 1440,204" stroke="rgba(179, 19, 18, 1)" stroke-width="2"></path><path d="M -724.4811948453006,247 C -628.48,288.4 -436.48,463 -244.4811948453006,454 C -52.48,445 43.52,229.8 235.5188051546994,202 C 427.52,174.2 523.52,311.8 715.5188051546994,315 C 907.52,318.2 1050.62,220 1195.5188051546993,218 C 1340.42,216 1391.1,287.6 1440,305" stroke="rgba(179, 19, 18, 1)" stroke-width="2"></path><path d="M -336.13956677102595,75 C -240.14,154 -48.14,435.4 143.86043322897405,470 C 335.86,504.6 431.86,285.8 623.860433228974,248 C 815.86,210.2 911.86,297.2 1103.860433228974,281 C 1295.86,264.8 1516.63,152 1583.860433228974,167 C 1651.09,182 1468.77,318.2 1440,356" stroke="rgba(179, 19, 18, 1)" stroke-width="2"></path><path d="M -325.7513037559267,288 C -229.75,264.8 -37.75,172 154.2486962440733,172 C 346.25,172 442.25,283.2 634.2486962440732,288 C 826.25,292.8 922.25,176.4 1114.2486962440732,196 C 1306.25,215.6 1529.1,405.8 1594.2486962440732,386 C 1659.4,366.2 1470.85,154.8 1440,97" stroke="rgba(179, 19, 18, 1)" stroke-width="2"></path><path d="M -901.8649541821496,203 C -805.86,227.2 -613.86,311 -421.8649541821497,324 C -229.86,337 -133.86,266.2 58.13504581785031,268 C 250.14,269.8 346.14,333.2 538.1350458178504,333 C 730.14,332.8 837.76,234.6 1018.1350458178504,267 C 1198.51,299.4 1355.63,449.4 1440,495" stroke="rgba(179, 19, 18, 1)" stroke-width="2"></path><path d="M -358.25483144337943,208 C -262.25,226 -70.25,283.8 121.74516855662056,298 C 313.75,312.2 409.75,251.2 601.7451685566206,279 C 793.75,306.8 889.75,476 1081.7451685566205,437 C 1273.75,398 1490.09,97.2 1561.7451685566205,84 C 1633.4,70.8 1464.35,313.6 1440,371" stroke="rgba(179, 19, 18, 1)" stroke-width="2"></path><path d="M -140.38808291036054,370 C -44.39,320 147.61,105.4 339.61191708963946,120 C 531.61,134.6 627.61,452.8 819.6119170896395,443 C 1011.61,433.2 1107.61,64.6 1299.6119170896395,71 C 1491.61,77.4 1751.53,437 1779.6119170896395,475 C 1807.69,513 1507.92,303.8 1440,261" stroke="rgba(179, 19, 18, 1)" stroke-width="2"></path><path d="M -832.051140502927,166 C -736.05,229.8 -544.05,477.8 -352.05114050292696,485 C -160.05,492.2 -64.05,235.6 127.94885949707304,202 C 319.95,168.4 415.95,342.4 607.948859497073,317 C 799.95,291.6 921.54,49.2 1087.948859497073,75 C 1254.36,100.8 1369.59,371.8 1440,446" stroke="rgba(179, 19, 18, 1)" stroke-width="2"></path><path d="M -811.8085569267877,103 C -715.81,168.2 -523.81,415.2 -331.8085569267877,429 C -139.81,442.8 -43.81,160.4 148.19144307321233,172 C 340.19,183.6 436.19,495.4 628.1914430732123,487 C 820.19,478.6 945.83,131.6 1108.1914430732122,130 C 1270.55,128.4 1373.64,409.2 1440,479" stroke="rgba(179, 19, 18, 1)" stroke-width="2"></path><path d="M -874.2805198879161,259 C -778.28,288 -586.28,424.8 -394.28051988791606,404 C -202.28,383.2 -106.28,161.2 85.71948011208394,155 C 277.72,148.8 373.72,381.8 565.7194801120839,373 C 757.72,364.2 870.86,99.8 1045.719480112084,111 C 1220.58,122.2 1361.14,365.4 1440,429" stroke="rgba(179, 19, 18, 1)" stroke-width="2"></path></g><defs><mask id="SvgjsMask1009"><rect width="1440" height="560" fill="#ffffff"></rect></mask></defs></svg>